<?xml version="1.0" encoding="UTF-8" standalone="no"?>
<!-- Created with Inkscape (http://www.inkscape.org/) -->

<svg
   xmlns:dc="http://purl.org/dc/elements/1.1/"
   xmlns:cc="http://creativecommons.org/ns#"
   xmlns:rdf="http://www.w3.org/1999/02/22-rdf-syntax-ns#"
   xmlns:svg="http://www.w3.org/2000/svg"
   xmlns="http://www.w3.org/2000/svg"
   xmlns:xlink="http://www.w3.org/1999/xlink"
   xmlns:sodipodi="http://sodipodi.sourceforge.net/DTD/sodipodi-0.dtd"
   xmlns:inkscape="http://www.inkscape.org/namespaces/inkscape"
   width="1024"
   height="1024"
   viewBox="0 0 1024 1024"
   id="svg2"
   version="1.1"
   inkscape:version="0.91 r13725"
   sodipodi:docname="immuprobe_logo_vectorized_v2.svg"
   inkscape:export-filename="/home/user/documents/ethz/ga_fs15/kramert/software/resources/immuprobe_logo_small.png"
   inkscape:export-xdpi="11.25"
   inkscape:export-ydpi="11.25">
  <defs
     id="defs4">
    <linearGradient
       id="linearGradient4510"
       inkscape:collect="always">
      <stop
         id="stop4512"
         offset="0"
         style="stop-color:#53cbff;stop-opacity:1" />
      <stop
         id="stop4514"
         offset="1"
         style="stop-color:#009ee1;stop-opacity:1" />
    </linearGradient>
    <linearGradient
       inkscape:collect="always"
       id="linearGradient4418">
      <stop
         style="stop-color:#79d7ff;stop-opacity:1"
         offset="0"
         id="stop4420" />
      <stop
         style="stop-color:#009ee1;stop-opacity:1"
         offset="1"
         id="stop4422" />
    </linearGradient>
    <radialGradient
       inkscape:collect="always"
       xlink:href="#linearGradient4418"
       id="radialGradient4424"
       cx="454.08453"
       cy="548.97668"
       fx="454.08453"
       fy="548.97668"
       r="117.22163"
       gradientTransform="matrix(0.43163063,6.9582799e-8,-1.072608e-7,0.95545506,284.00325,-72.160425)"
       gradientUnits="userSpaceOnUse" />
    <radialGradient
       inkscape:collect="always"
       xlink:href="#linearGradient4510"
       id="radialGradient4508"
       gradientUnits="userSpaceOnUse"
       gradientTransform="matrix(0.43163063,5.971026e-8,-5.439534e-8,0.47772773,284.00322,214.10074)"
       cx="620.89386"
       cy="599.21454"
       fx="620.89386"
       fy="599.21454"
       r="117.22163" />
    <radialGradient
       inkscape:collect="always"
       xlink:href="#linearGradient4418"
       id="radialGradient4516"
       gradientUnits="userSpaceOnUse"
       gradientTransform="matrix(0.43163063,6.9582799e-8,-1.072608e-7,0.95545506,284.00325,-72.160425)"
       cx="454.08453"
       cy="548.97668"
       fx="454.08453"
       fy="548.97668"
       r="117.22163" />
  </defs>
  <sodipodi:namedview
     id="base"
     pagecolor="#ffffff"
     bordercolor="#666666"
     borderopacity="1.0"
     inkscape:pageopacity="0.0"
     inkscape:pageshadow="2"
     inkscape:zoom="0.49497475"
     inkscape:cx="503.0356"
     inkscape:cy="412.46537"
     inkscape:document-units="px"
     inkscape:current-layer="layer1"
     showgrid="true"
     inkscape:window-width="1592"
     inkscape:window-height="847"
     inkscape:window-x="4"
     inkscape:window-y="25"
     inkscape:window-maximized="0"
     units="px"
     objecttolerance="10000">
    <inkscape:grid
       type="xygrid"
       id="grid4140"
       spacingx="8"
       spacingy="8"
       empspacing="8" />
  </sodipodi:namedview>
  <metadata
     id="metadata7">
    <rdf:RDF>
      <cc:Work
         rdf:about="">
        <dc:format>image/svg+xml</dc:format>
        <dc:type
           rdf:resource="http://purl.org/dc/dcmitype/StillImage" />
        <dc:title></dc:title>
      </cc:Work>
    </rdf:RDF>
  </metadata>
  <g
     inkscape:label="Layer 1"
     inkscape:groupmode="layer"
     id="layer1"
     transform="translate(0,-28.36216)">
    <g
       id="g4213"
       transform="translate(754.58395,37.375644)">
      <path
         sodipodi:nodetypes="cczcc"
         inkscape:connector-curvature="0"
         id="path4144"
         d="M 512,241.3317 400.57143,454.50502 c -12.67236,44.05472 -3.64286,76.92857 28.92857,108.42857 32.57143,31.5 82.5,33.42857 82.5,33.42857 z"
         style="fill:none;fill-rule:evenodd;stroke:#000000;stroke-width:1px;stroke-linecap:butt;stroke-linejoin:miter;stroke-opacity:1">
        <title
           id="title4146">half_dropplet</title>
      </path>
      <path
         style="fill:none;fill-rule:evenodd;stroke:#000000;stroke-width:1px;stroke-linecap:butt;stroke-linejoin:miter;stroke-opacity:1"
         d="m 512.57582,241.3317 111.42857,213.17332 c 12.67236,44.05472 3.64286,76.92857 -28.92857,108.42857 -32.57143,31.5 -82.5,33.42857 -82.5,33.42857 z"
         id="path4148"
         inkscape:connector-curvature="0"
         sodipodi:nodetypes="cczcc">
        <title
           id="title4150">half_dropplet</title>
      </path>
    </g>
    <g
       id="g4230" />
    <g
       id="g4549">
      <g
         transform="translate(0.06324337,-0.03434133)"
         id="g4251">
        <path
           inkscape:connector-curvature="0"
           id="path4205"
           d="m 691.86332,839.55836 c -8.44301,-0.48299 -15.90204,-2.65796 -22.53421,-6.57067 -12.22642,-7.21309 -19.72196,-19.48904 -21.73621,-35.5988 -0.6743,-5.39297 -0.62338,-12.33108 0.13022,-17.745 0.92923,-6.67565 3.13409,-13.41835 6.10017,-18.655 2.00697,-3.54334 4.15441,-6.36772 7.02122,-9.23453 4.00138,-4.00137 8.27384,-6.88941 13.65454,-9.22999 6.85905,-2.98364 15.37311,-4.39788 23.855,-3.96244 8.02075,0.41177 14.33478,1.96128 20.475,5.02471 12.01196,5.99289 19.9579,16.2653 23.39362,30.24296 2.39998,9.76389 2.33203,21.45078 -0.18138,31.19721 -3.73705,14.49145 -12.60087,25.10166 -25.59821,30.64173 -7.25066,3.09055 -15.56128,4.40573 -24.57976,3.88982 z m 6.94573,-16.76016 c 4.67197,-0.53335 8.40344,-2.05388 12.17458,-4.96102 5.40663,-4.16791 9.27191,-11.00133 10.89191,-19.25579 0.60889,-3.10252 0.80765,-4.985 0.8825,-8.35846 0.10946,-4.93047 -0.3519,-9.03434 -1.51948,-13.51819 -2.63011,-10.10028 -9.06966,-17.55813 -17.55502,-20.33102 -4.84068,-1.58185 -11.36261,-1.57363 -16.36384,0.0207 -5.10393,1.62702 -9.97613,5.47853 -13.24511,10.47037 -4.5349,6.92497 -6.59634,17.10496 -5.54782,27.39664 0.90115,8.8451 4.15136,16.41969 9.21061,21.46532 2.203,2.19705 4.29468,3.69899 6.87753,4.93841 2.30382,1.10554 4.80047,1.81229 7.49914,2.12286 1.39842,0.16094 5.32237,0.16694 6.695,0.0104 z m 108.61696,16.76241 c -8.42671,-0.43696 -14.40094,-2.0548 -19.90929,-5.39147 -3.84451,-2.32881 -6.69625,-5.20504 -8.75396,-8.82917 -0.42661,-0.75135 -0.85058,-1.36608 -0.94218,-1.36608 -0.13312,0 -0.16653,1.2857 -0.16653,6.409 0,4.81144 -0.0389,6.44788 -0.156,6.565 -0.22581,0.22581 -19.61219,0.22581 -19.838,0 -0.22746,-0.22746 -0.22746,-132.06054 0,-132.288 0.11869,-0.11869 2.61075,-0.15552 10.4325,-0.15401 5.65208,10e-4 10.34947,0.0484 10.43866,0.10491 0.12844,0.0815 0.16899,5.17221 0.195,24.45968 0.025,18.4977 0.0695,24.36893 0.1854,24.40755 0.0838,0.028 0.40138,-0.31816 0.70552,-0.76917 3.6458,-5.40635 9.73007,-9.89989 16.56192,-12.23179 5.77701,-1.97186 11.55126,-2.44502 18.66634,-1.52958 10.04169,1.29198 18.38568,5.49185 24.93118,12.54886 7.18736,7.74906 11.55724,19.03888 12.6256,32.61888 0.19878,2.52668 0.16173,8.75395 -0.0677,11.38862 -1.15182,13.2239 -5.38508,24.13176 -12.39744,31.94444 -3.35197,3.73454 -8.3618,7.33658 -12.77632,9.1861 -5.80377,2.43156 -11.88477,3.33323 -19.73465,2.92617 z m 0.75066,-16.76423 c 5.06369,-0.55158 8.93879,-2.25306 12.85908,-5.64618 4.30506,-3.72612 7.40473,-9.04095 8.93905,-15.32728 0.4664,-1.91087 1.05296,-5.47694 1.25323,-7.61903 0.24077,-2.57549 0.20692,-7.9564 -0.065,-10.335 -1.01981,-8.92005 -4.08463,-16.16694 -8.98196,-21.23824 -3.40057,-3.52136 -7.20815,-5.77853 -11.44523,-6.78483 -3.54852,-0.84278 -8.17123,-0.86297 -12.21678,-0.0533 -5.08865,1.01835 -9.59016,3.61237 -12.66833,7.30019 -4.37996,5.24746 -6.85516,11.91526 -7.68831,20.71125 -0.23368,2.46699 -0.20019,8.50596 0.0604,10.89463 1.07124,9.81898 4.47354,17.22009 10.19235,22.17163 3.92271,3.39642 8.2585,5.36055 13.07116,5.92132 1.37411,0.16011 5.23949,0.16294 6.69035,0.005 z m 97.3324,16.82211 c -7.62675,-0.35426 -14.20687,-1.96371 -20.08502,-4.91264 -13.16278,-6.6035 -21.28821,-18.85494 -23.58552,-35.56196 -2.33813,-17.00395 1.39219,-32.4356 10.66881,-44.135 1.43982,-1.81585 5.15956,-5.541 6.93671,-6.9468 4.78122,-3.78211 10.32251,-6.58955 15.92501,-8.06822 6.79536,-1.7935 14.94477,-1.982 21.97,-0.50817 6.60417,1.3855 12.53806,4.24677 18.25852,8.80414 1.59731,1.27255 5.12799,4.80323 6.40053,6.40054 7.52517,9.44568 11.64722,22.05866 11.24044,34.39435 -0.093,2.81703 -0.30879,5.10616 -0.50424,5.34666 -0.10504,0.12922 -7.319,0.1625 -35.28116,0.1625 l -35.1491,0 0.001,0.8775 c 0,0.48263 0.0598,1.55025 0.13148,2.3725 0.69405,7.95884 3.8892,15.01296 8.69356,19.19328 3.89178,3.38629 8.32238,5.24893 13.74847,5.77996 1.96087,0.19189 6.65944,0.078 8.49539,-0.20592 6.72713,-1.04034 11.45201,-3.93386 14.9695,-9.16732 0.91426,-1.36028 2.29175,-4.04464 2.83433,-5.52332 0.15707,-0.42809 0.35435,-0.82207 0.43838,-0.87551 0.084,-0.0534 4.55674,-0.0982 9.93937,-0.0992 8.11531,-0.001 9.79812,0.0281 9.85417,0.17416 0.0906,0.23614 -0.59656,2.91205 -1.22335,4.76385 -3.52213,10.40577 -11.24367,18.89108 -21.35917,23.47189 -6.85601,3.10474 -15.2425,4.63784 -23.31823,4.26271 z m 26.12911,-59.06317 c 0.21661,-0.35047 -0.60738,-4.96327 -1.30571,-7.30947 -2.82488,-9.49104 -9.72193,-16.041 -18.68275,-17.74259 -1.73033,-0.32858 -6.7762,-0.32184 -8.61065,0.0117 -3.79382,0.68935 -6.77307,1.87866 -9.685,3.86625 -5.51584,3.76489 -9.47201,10.17807 -10.65348,17.26989 -0.2939,1.76415 -0.46155,3.69265 -0.33832,3.89202 0.11661,0.18874 49.15929,0.20111 49.27591,0.013 z m -453.47163,56.46247 c -0.12974,-0.0524 -0.1625,-13.41855 -0.1625,-66.22226 l 0,-66.15669 0.2925,-0.0725 c 0.16088,-0.0399 14.508,-0.0525 31.8825,-0.0281 28.57487,0.0402 31.78232,0.0654 33.605,0.26403 7.78726,0.84846 12.76098,2.21168 17.92227,4.91222 7.34067,3.84087 12.01754,8.50828 15.49072,15.45942 1.92404,3.85073 3.10878,8.2191 3.98406,14.69 0.33848,2.50231 0.33864,8.81156 0,11.31 -0.87612,6.46945 -2.03958,10.69574 -4.04596,14.69685 -2.79508,5.57395 -6.83912,10.0759 -11.86012,13.20301 -6.40309,3.98789 -11.73386,5.71988 -20.84125,6.77141 -1.6575,0.19136 -4.37972,0.22645 -22.555,0.29068 l -20.67,0.0731 -0.0329,25.34253 c -0.026,20.07613 -0.0666,25.36394 -0.195,25.44551 -0.17376,0.11037 -22.54225,0.13079 -22.81468,0.0208 z m 61.1325,-70.03673 c 7.38669,-1.21243 12.53928,-4.24862 15.85223,-9.34098 2.60585,-4.00551 3.59338,-9.02463 3.05492,-15.5266 -0.44955,-5.42836 -2.2072,-9.73104 -5.27524,-12.91364 -2.47714,-2.56965 -5.59827,-4.20999 -9.50941,-4.99778 -3.30985,-0.66666 -2.8311,-0.65317 -23.1675,-0.65317 l -19.045,0 -0.0334,21.71 c -0.0183,11.9405 -0.005,21.78541 0.0304,21.87757 0.0517,0.13597 3.51616,0.15925 18.36337,0.1235 16.90142,-0.0408 18.4089,-0.062 19.72964,-0.27885 z m 55.0875,70.03673 c -0.12961,-0.0523 -0.1625,-9.76326 -0.1625,-47.94582 0,-43.54061 0.0186,-47.88741 0.20564,-47.95917 0.30811,-0.1183 19.20369,-0.0913 19.39098,0.0277 0.12584,0.08 0.16901,2.13234 0.195,9.26051 0.0273,7.48248 0.0647,9.15788 0.20501,9.15788 0.10257,0 0.34195,-0.52342 0.59466,-1.3 1.12758,-3.46506 3.15677,-6.6245 6.37646,-9.92809 3.94477,-4.04753 8.11394,-6.72933 13.17405,-8.47414 2.99502,-1.03273 6.52308,-1.50839 10.1032,-1.36215 1.74455,0.0712 4.84758,0.36451 5.6225,0.53136 l 0.2925,0.0629 0,10.15443 0,10.15443 -0.5525,-0.069 c -0.30387,-0.038 -1.4885,-0.20535 -2.6325,-0.37199 -1.78178,-0.25956 -2.59255,-0.30301 -5.655,-0.30303 -3.39357,-3e-5 -3.65785,0.0178 -5.20759,0.35079 -5.9763,1.28423 -10.75948,4.37127 -14.43655,9.31732 -2.77878,3.73772 -4.86494,8.77469 -5.82724,14.06964 -0.72225,3.97419 -0.69716,2.97972 -0.75083,29.74844 -0.0383,19.12174 -0.0853,24.78366 -0.20622,24.86052 -0.17,0.10803 -20.46219,0.12506 -20.72907,0.0174 z"
           style="fill:#009ee1"
           sodipodi:nodetypes="ssssssssssssscsscsssssssscccsssscssccscssssscsscccsssssscssssscccssssssssccscccssssccccsscccsscssccccsccscssscsssscsccccssssscscscccsccsssssccccccsscsssccc" />
        <path
           inkscape:connector-curvature="0"
           id="path4207"
           d="m 411.76904,839.16625 c -5.71999,-0.49233 -10.62176,-1.88753 -14.72743,-4.19187 -4.36611,-2.45053 -7.99497,-6.25499 -10.29875,-10.7971 -2.54871,-5.02498 -3.80149,-10.40135 -4.15197,-17.81839 -0.085,-1.80022 -0.13546,-14.30758 -0.13599,-33.75359 -0.001,-28.05149 0.0181,-30.90086 0.20477,-30.9725 0.30286,-0.11622 6.59208,-0.0923 6.77792,0.0259 0.12389,0.0786 0.16759,7.15516 0.19988,32.33551 0.0448,35.00735 0.0264,34.06962 0.76255,38.53206 0.96879,5.87237 3.95775,11.35351 8.08337,14.82325 3.81556,3.20897 6.97631,4.60201 12.31065,5.42566 2.19888,0.33952 9.15612,0.3354 11.37501,-0.007 9.21055,-1.4202 16.88825,-6.26856 21.91447,-13.83869 3.55634,-5.35631 5.60535,-11.42325 6.63841,-19.65577 0.11427,-0.9107 0.16759,-8.62419 0.20304,-29.3751 0.0374,-21.90064 0.0831,-28.16237 0.20607,-28.24051 0.20909,-0.13287 6.61115,-0.13017 6.82069,0.003 0.12987,0.0824 0.15608,9.71644 0.13,47.74051 l -0.0326,47.63727 -3.51,0 -3.51,0 -0.0333,-10.1075 c -0.0263,-7.95547 -0.0677,-10.10732 -0.195,-10.10664 -0.0889,0 -0.35741,0.51234 -0.59658,1.13749 -1.50056,3.922 -3.95499,7.63461 -7.15872,10.82836 -5.96373,5.94514 -13.41676,9.37891 -22.40604,10.32292 -2.06706,0.21707 -6.64491,0.24428 -8.87038,0.0528 z M 70.644219,836.94139 c -0.03392,-0.0893 -0.0467,-29.90975 -0.02842,-66.2675 l 0.03324,-66.105 4.021145,-0.0344 c 3.130448,-0.0268 4.044263,10e-4 4.12551,0.13 0.119873,0.18884 0.149196,131.92169 0.02943,132.23378 -0.0696,0.18137 -0.553133,0.20563 -4.099079,0.20563 -3.096587,0 -4.034337,-0.0373 -4.081826,-0.16251 z m 25.75953,-0.0411 c -0.04384,-0.11427 -0.07972,-21.52201 -0.07972,-47.57281 0,-42.88583 0.01932,-47.3844 0.204285,-47.56936 0.174792,-0.17479 0.66748,-0.204 3.4125,-0.2023 1.764526,10e-4 3.280966,0.0482 3.369876,0.10465 0.12598,0.08 0.16901,2.21676 0.195,9.68303 0.0199,5.72737 0.0817,9.59344 0.15358,9.61285 0.0661,0.0178 0.39106,-0.75727 0.72207,-1.72252 1.34281,-3.91565 3.49969,-7.35423 6.54273,-10.43064 6.72995,-6.80376 16.00174,-10.11571 26.09648,-9.32186 4.86746,0.38279 8.26977,1.27091 12.14849,3.1712 3.11486,1.52607 4.88979,2.81696 7.29712,5.30716 2.70503,2.79813 4.68198,6.32823 5.73138,10.23414 0.2017,0.75075 0.42406,1.35351 0.49411,1.33947 0.0701,-0.014 0.68392,-1.12554 1.36412,-2.47 1.85891,-3.67423 3.50083,-6.13652 5.6831,-8.5226 4.7986,-5.24676 10.20389,-7.89151 18.17017,-8.89046 2.24171,-0.2811 7.38123,-0.3189 9.49,-0.0698 5.72979,0.67682 10.70061,2.49776 14.43,5.28604 1.37817,1.03039 3.66883,3.25945 4.67818,4.55236 3.3791,4.32846 5.42204,9.73015 6.26866,16.575 0.2189,1.76973 0.23316,3.99957 0.23316,36.465 l 0,34.58 -3.51,0 -3.51,0 -0.0771,-34.905 c -0.0424,-19.19775 -0.11856,-35.10975 -0.16931,-35.36 -0.0507,-0.25025 -0.18029,-1.06925 -0.28793,-1.82 -0.55603,-3.87825 -1.7877,-7.04782 -3.97484,-10.22881 -2.17525,-3.16375 -4.55113,-5.25278 -7.84356,-6.89666 -2.08902,-1.04301 -3.33587,-1.41392 -6.30226,-1.87474 -2.47273,-0.38414 -6.66485,-0.4102 -9.035,-0.0562 -5.24346,0.78321 -9.98882,2.79929 -13.65,5.79925 -1.1095,0.90911 -3.30295,3.16067 -4.11317,4.22214 -3.17832,4.16384 -5.41897,9.49434 -6.47638,15.40725 -0.72852,4.07384 -0.69369,2.48536 -0.77519,35.35775 l -0.0753,30.355 -3.4745,0.0346 -3.47448,0.0346 -0.0694,-0.29462 c -0.0382,-0.16205 -0.0858,-15.88487 -0.10569,-34.93962 -0.0337,-32.2039 -0.0523,-34.75034 -0.26336,-36.14 -0.72794,-4.79228 -1.7994,-7.68171 -4.16988,-11.245 -1.98636,-2.98591 -4.61654,-5.25675 -7.90036,-6.82104 -1.66763,-0.7944 -3.01016,-1.18606 -5.65109,-1.64863 -1.79226,-0.31392 -2.3919,-0.36037 -4.59617,-0.35607 -2.68758,0.005 -3.9847,0.1611 -6.36718,0.76502 -7.43174,1.88385 -13.69282,6.30899 -17.75079,12.54572 -3.16628,4.86629 -4.79706,9.62996 -5.67423,16.575 -0.10447,0.82715 -0.17049,10.0078 -0.22529,31.33 l -0.0775,30.16 -3.462791,0.0346 c -3.072762,0.0307 -3.471765,0.0117 -3.5425,-0.17314 z m 143.129201,-0.003 c -0.0434,-0.1131 -0.0789,-21.51991 -0.0789,-47.57072 0,-42.88583 0.0194,-47.3844 0.20428,-47.56936 0.30628,-0.30628 6.56516,-0.30628 6.87144,0 0.182,0.18201 0.20428,1.24611 0.20428,9.75767 0,5.44095 0.049,9.52307 0.11401,9.48294 0.0627,-0.0387 0.27143,-0.57539 0.46384,-1.19256 2.86099,-9.17619 11.28644,-16.79992 21.46787,-19.42509 5.62282,-1.44979 13.00591,-1.31561 18.67495,0.33938 6.52589,1.90514 12.00544,5.89694 15.10667,11.00507 1.21022,1.99339 2.50686,5.09276 2.93721,7.02081 0.0918,0.41112 0.23731,0.7475 0.32344,0.7475 0.0861,0 0.65783,-1.00913 1.27045,-2.2425 1.98487,-3.99604 3.78173,-6.61111 6.39658,-9.30938 2.52312,-2.60359 4.39468,-3.99746 7.28,-5.42189 4.27441,-2.11018 9.10738,-3.09255 15.275,-3.10488 3.47559,-0.007 4.83402,0.117 7.82742,0.71424 12.80443,2.55463 20.47045,11.68657 22.09445,26.31941 0.13983,1.25988 0.17313,8.19998 0.17313,36.075 l 0,34.515 -3.43596,0.0347 c -2.66218,0.0269 -3.45951,-0.003 -3.54051,-0.13 -0.0575,-0.0906 -0.10543,-15.32235 -0.10647,-33.84834 -10e-4,-21.63284 -0.0493,-34.28336 -0.13424,-35.36 -0.29461,-3.73461 -1.07808,-7.02624 -2.25554,-9.47637 -2.32567,-4.83937 -5.54341,-8.25032 -9.79338,-10.38144 -2.17686,-1.09158 -3.33367,-1.43917 -6.40883,-1.92566 -2.43412,-0.3851 -6.64452,-0.41413 -8.97,-0.0619 -10.43227,1.58026 -17.84747,7.41932 -21.95475,17.28812 -1.02205,2.45574 -1.93599,5.69341 -2.41129,8.54219 -0.65948,3.95261 -0.63145,2.57498 -0.71292,35.02865 l -0.0761,30.29 -3.4745,0.0346 -3.47448,0.0346 -0.0694,-0.29462 c -0.0382,-0.16204 -0.0858,-15.91412 -0.10569,-35.00462 -0.0404,-38.71224 0.0339,-35.61031 -0.94863,-39.57778 -0.50275,-2.03011 -0.92053,-3.18289 -1.75502,-4.84263 -2.29773,-4.56996 -5.34633,-7.66596 -9.51547,-9.66343 -1.78055,-0.85308 -3.09167,-1.24006 -5.6968,-1.68148 -4.7593,-0.80642 -8.56177,-0.49192 -13.42991,1.11083 -5.39416,1.77592 -10.32889,5.22946 -13.75324,9.62513 -2.65723,3.41097 -4.86582,7.81892 -6.01073,11.99636 -0.50569,1.84513 -1.04207,4.88903 -1.23931,7.033 -0.0842,0.91506 -0.13158,12.13457 -0.13166,31.15687 -5e-5,16.34978 -0.0356,29.8194 -0.079,29.9325 -0.0693,0.18043 -0.50571,0.20563 -3.56109,0.20563 -3.05538,0 -3.49185,-0.0252 -3.56109,-0.20563 z"
           style="fill:#b2b1b1"
           sodipodi:nodetypes="csscsccsssscscsccsccccccsscccscscssccssccscsssssscsssssssscccscsssscssssccccscssscsssscscccsccsccssscsssscssscscssssscsssccccsssssssscscscc" />
      </g>
      <g
         transform="translate(1.9655364e-4,14.142136)"
         style="opacity:0.95"
         id="g4488">
        <g
           id="g4380"
           style="fill:url(#radialGradient4424);fill-opacity:1;stroke:none">
          <path
             inkscape:connector-curvature="0"
             transform="translate(0,28.36216)"
             style="fill:url(#radialGradient4516);fill-opacity:1;fill-rule:evenodd;stroke:none;stroke-width:1px;stroke-linecap:butt;stroke-linejoin:miter;stroke-opacity:1"
             d="M 511.71094,201.54102 400.2832,414.71484 c -12.67236,44.05472 -3.64369,76.92969 28.92774,108.42969 32.57143,31.5 71.18067,33.42774 82.78906,33.42774 11.60839,0 50.21568,-1.92774 82.78711,-33.42774 32.57143,-31.5 41.60205,-64.37497 28.92969,-108.42969 l -111.42969,-213.17382 -0.57617,0 z m 0.0645,53.51953 0.44922,0 86.81836,166.09375 c 9.87362,34.32509 2.83886,59.93931 -22.53906,84.48242 -25.37793,24.54312 -55.45927,26.04492 -64.50391,26.04492 -9.04464,0 -39.12599,-1.5018 -64.50391,-26.04492 -25.37792,-24.54311 -32.41269,-50.15733 -22.53906,-84.48242 l 86.81836,-166.09375 z"
             id="path4163">
            <title
               style="fill:url(#radialGradient4424);fill-opacity:1;stroke:url(#radialGradient4400)"
               id="title4228">half_dropplet</title>
          </path>
          <path
             style="fill:url(#radialGradient4508);fill-opacity:1;fill-rule:evenodd;stroke:none;stroke-width:0.61651826px;stroke-linecap:butt;stroke-linejoin:miter;stroke-opacity:1"
             d="M 511.82192,323.38495 443.12468,454.8105 c -7.81274,27.16054 -2.2464,47.42856 17.83448,66.84889 20.08088,19.42032 43.88358,20.6088 51.04036,20.6088 7.15679,0 30.95949,-1.18848 51.04037,-20.6088 20.08088,-19.42033 25.64842,-39.68835 17.83568,-66.84889 L 512.17713,323.38495"
             id="path4219"
             inkscape:connector-curvature="0"
             sodipodi:nodetypes="ccszscc">
            <title
               style="fill:url(#radialGradient4424);fill-opacity:1;stroke:url(#radialGradient4400)"
               id="title4221">half_dropplet</title>
          </path>
        </g>
        <g
           id="g4482"
           style="fill:#000000;fill-opacity:0.17370893;stroke:none">
          <path
             sodipodi:nodetypes="csccccccscc"
             id="path4428"
             d="m 512,584.93443 c 11.60839,0 50.21568,-1.92774 82.78711,-33.42774 32.57143,-31.5 41.60205,-64.37497 28.92969,-108.42969 l -111.42969,-213.17382 -0.57617,0 0.0645,53.51953 0.44922,0 86.81836,166.09375 c 9.87362,34.32509 2.83886,59.93931 -22.53906,84.48242 -25.37793,24.54312 -55.45927,26.04492 -64.50391,26.04492 z"
             style="fill:#000000;fill-opacity:0.09389672;fill-rule:evenodd;stroke:none;stroke-width:1px;stroke-linecap:butt;stroke-linejoin:miter;stroke-opacity:1"
             inkscape:connector-curvature="0">
            <title
               id="title4430">half_dropplet</title>
          </path>
          <path
             sodipodi:nodetypes="ccscc"
             inkscape:connector-curvature="0"
             id="path4432"
             d="M 511.82192,323.38495 443.12468,454.8105 c -7.81274,27.16054 -2.2464,47.42856 17.83448,66.84889 20.08088,19.42032 43.88358,20.6088 51.04036,20.6088 7.15679,0 -0.1776,-218.88324 -0.1776,-218.88324 z"
             style="fill:#000000;fill-opacity:0.09389672;fill-rule:evenodd;stroke:none;stroke-width:0.61651826px;stroke-linecap:butt;stroke-linejoin:miter;stroke-opacity:1">
            <title
               id="title4434">half_dropplet</title>
          </path>
        </g>
      </g>
    </g>
    <text
       xml:space="preserve"
       style="font-style:normal;font-weight:normal;font-size:40px;line-height:125%;font-family:sans-serif;letter-spacing:0px;word-spacing:0px;fill:#000000;fill-opacity:1;stroke:none;stroke-width:1px;stroke-linecap:butt;stroke-linejoin:miter;stroke-opacity:1"
       x="72"
       y="836.36218"
       id="text4518"
       sodipodi:linespacing="125%"><tspan
         sodipodi:role="line"
         id="tspan4520"
         x="72"
         y="836.36218"></tspan></text>
  </g>
</svg>
