<?xml version="1.0" encoding="UTF-8" standalone="no"?>
<!-- Created with Inkscape (http://www.inkscape.org/) -->

<svg
   xmlns:dc="http://purl.org/dc/elements/1.1/"
   xmlns:cc="http://creativecommons.org/ns#"
   xmlns:rdf="http://www.w3.org/1999/02/22-rdf-syntax-ns#"
   xmlns:svg="http://www.w3.org/2000/svg"
   xmlns="http://www.w3.org/2000/svg"
   xmlns:sodipodi="http://sodipodi.sourceforge.net/DTD/sodipodi-0.dtd"
   xmlns:inkscape="http://www.inkscape.org/namespaces/inkscape"
   width="1024"
   height="1024"
   viewBox="0 0 1024 1024"
   id="svg2"
   version="1.1"
   inkscape:version="0.91 r13725"
   sodipodi:docname="immuprobe_icon.svg"
   inkscape:export-filename="/home/user/documents/ethz/ga_fs15/kramert/software/resources/immuprobe_icon.png"
   inkscape:export-xdpi="1.40625"
   inkscape:export-ydpi="1.40625">
  <defs
     id="defs4" />
  <sodipodi:namedview
     id="base"
     pagecolor="#ffffff"
     bordercolor="#666666"
     borderopacity="1.0"
     inkscape:pageopacity="0.0"
     inkscape:pageshadow="2"
     inkscape:zoom="0.49497475"
     inkscape:cx="91.260453"
     inkscape:cy="375.32117"
     inkscape:document-units="px"
     inkscape:current-layer="layer1"
     showgrid="false"
     inkscape:window-width="1592"
     inkscape:window-height="847"
     inkscape:window-x="4"
     inkscape:window-y="25"
     inkscape:window-maximized="0"
     units="px"
     inkscape:snap-grids="true" />
  <metadata
     id="metadata7">
    <rdf:RDF>
      <cc:Work
         rdf:about="">
        <dc:format>image/svg+xml</dc:format>
        <dc:type
           rdf:resource="http://purl.org/dc/dcmitype/StillImage" />
        <dc:title></dc:title>
      </cc:Work>
    </rdf:RDF>
  </metadata>
  <g
     inkscape:label="Layer 1"
     inkscape:groupmode="layer"
     id="layer1"
     transform="translate(0,-28.36216)">
    <path
       style="opacity:0.572;fill:#000000;fill-opacity:1;fill-rule:evenodd;stroke:none;stroke-width:0.60000002;stroke-linecap:round;stroke-linejoin:round;stroke-miterlimit:4;stroke-dasharray:none;stroke-opacity:1"
       d="m -763.40976,646.30124 c -66.9993,227.77102 136.75779,399.42866 323.71428,399.42866 186.95649,0 397.161737,-177.61703 324,-399.42866 l -324,-625.142814 z"
       id="path4165"
       inkscape:connector-curvature="0"
       sodipodi:nodetypes="czccc" />
    <g
       id="g4255"
       transform="matrix(2.8748684,0,0,2.8748684,-959.74142,-662.82294)">
      <path
         sodipodi:nodetypes="cssscssscsscssscccssscscssscsscssccccsssssscsssccc"
         inkscape:connector-curvature="0"
         id="path4249"
         d="m 507.31905,595.80876 c -16.21098,-0.82992 -33.0893,-5.46087 -48.75,-13.37566 -20.38268,-10.30125 -37.31733,-25.29441 -48.3475,-42.80463 -8.95712,-14.21933 -13.99167,-29.58796 -15.02131,-45.85457 -0.17319,-2.73611 -0.1751,-8.5596 -0.004,-11.24722 0.59172,-9.27789 2.18615,-17.17309 5.55103,-27.48724 0.31742,-0.97298 111.0045,-213.92054 111.19282,-213.92054 0.0829,0 25.06678,47.9406 55.51972,106.53467 l 55.369,106.53466 0.83285,2.53534 c 2.8099,8.55379 4.40961,16.7285 5.01172,25.61034 0.16701,2.46379 0.16593,9.06326 -0.003,11.59215 -1.26937,19.12536 -7.94209,36.81436 -19.90154,52.75783 -13.56448,18.08317 -33.69507,32.89388 -56.2762,41.40414 -2.3452,0.88386 -7.71846,2.6786 -9.88,3.30005 -11.80167,3.39309 -24.44212,4.9763 -35.295,4.42068 z m 11.05,-24.75013 c 12.32626,-1.08055 24.49477,-4.66813 36.4,-10.73165 19.57627,-9.97052 35.08742,-25.45276 43.10335,-43.02308 3.54129,-7.76224 5.63251,-15.85593 6.23937,-24.14831 0.19877,-2.71611 0.0914,-9.96891 -0.18337,-12.38168 -0.59464,-5.22214 -1.48948,-9.54633 -3.03372,-14.65982 l -0.59941,-1.98481 -44.10052,-84.85519 c -24.2553,-46.67035 -44.16979,-84.85518 -44.25442,-84.85518 -0.0846,0 -20.0024,38.19121 -44.26171,84.86938 l -44.10783,84.86937 -0.66217,2.23063 c -1.55072,5.22385 -2.49978,9.95724 -3.04078,15.16562 -0.22717,2.1871 -0.2273,10.94102 0,13.13 1.81509,17.49441 9.72824,33.38072 23.4341,47.04596 14.40918,14.36646 33.84232,24.5283 54.00731,28.2411 3.4548,0.63611 7.22566,1.0623 11.83,1.33705 1.52282,0.0909 7.05295,-0.0585 9.23,-0.24939 z m -8.45,-17.95206 c -3.893,-0.22884 -7.5354,-0.6835 -10.91737,-1.36278 -16.06557,-3.22683 -31.87189,-11.72577 -43.48763,-23.38297 -9.25628,-9.28934 -15.05673,-19.71042 -17.08055,-30.68692 -0.79538,-4.31382 -1.0135,-9.79624 -0.5534,-13.91 0.44039,-3.93763 1.55947,-9.28626 2.32883,-11.13057 0.69239,-1.65983 71.55983,-137.78443 71.73154,-137.78443 0.16856,0 71.78703,137.59984 71.92564,138.19 0.0335,0.143 0.27167,1.04975 0.52908,2.015 3.36729,12.62696 2.14937,24.88834 -3.61558,36.4 -4.16086,8.30859 -10.86222,16.3398 -19.18556,22.99287 -14.17424,11.32986 -32.1997,18.25308 -48.555,18.64901 -1.287,0.0312 -2.691,0.036 -3.12,0.0104 z"
         style="fill:#009ee1" />
      <path
         style="fill:#008fd6"
         d="m 511.93405,583.69158 0,-12.04273 0.2925,-0.0593 c 0.16088,-0.0326 1.27599,-0.0936 2.47805,-0.13557 4.96734,-0.17335 10.96805,-0.99276 16.27445,-2.2223 22.15065,-5.13249 42.94923,-17.99116 56.55146,-34.96278 10.19283,-12.71771 15.88654,-26.98985 16.82925,-42.185 0.53692,-8.65419 -0.80933,-18.51624 -3.72664,-27.3 -0.25342,-0.76305 -13.73753,-26.83151 -43.57379,-84.24 -23.76373,-45.72425 -43.63845,-83.9442 -44.16603,-84.9332 l -0.95925,-1.79821 0,-26.04662 c 0,-14.32565 0.0472,-26.07576 0.10478,-26.11137 0.0576,-0.0356 24.96399,47.76018 55.3475,106.21286 53.43778,102.80513 55.26538,106.34415 55.93561,108.31457 5.0262,14.77684 6.52775,30.41817 4.37007,45.52197 -0.84741,5.93178 -2.58279,12.84668 -4.6262,18.43373 -7.28902,19.92959 -20.75246,37.26563 -39.69673,51.1151 -11.52461,8.42522 -25.59465,15.42 -39.26,19.51773 -9.84661,2.95263 -19.91105,4.64212 -29.0875,4.88285 l -3.0875,0.081 0,-12.04274 z m -4.42,-30.91282 c -16.11699,-1.28638 -33.18845,-8.466 -46.41,-19.51828 -7.79033,-6.51218 -13.74427,-13.7884 -17.73741,-21.67657 -3.16014,-6.24268 -4.85786,-12.14641 -5.41338,-18.82476 -0.19426,-2.33525 -0.088,-7.63227 0.20129,-10.03524 0.26193,-2.17565 0.96255,-5.73973 1.58443,-8.06 l 0.47037,-1.755 35.82182,-68.93309 c 22.71967,-43.72018 35.8597,-68.87343 35.92536,-68.77 0.0569,0.0897 0.10439,49.11296 0.10556,108.94059 l 0.003,108.77748 -1.5925,-0.0181 c -0.87588,-0.0104 -2.20675,-0.0671 -2.9575,-0.12701 z"
         id="path4203"
         inkscape:connector-curvature="0" />
    </g>
  </g>
</svg>
